<svg width="13" height="13" viewBox="0 0 13 13" fill="none" xmlns="http://www.w3.org/2000/svg">
<path d="M12.9999 0.722195V10.1107C12.9999 10.3023 12.9238 10.486 12.7884 10.6214C12.6529 10.7568 12.4693 10.8329 12.2777 10.8329C12.0862 10.8329 11.9025 10.7568 11.767 10.6214C11.6316 10.486 11.5555 10.3023 11.5555 10.1107V2.46539L1.23355 12.7883C1.09804 12.9238 0.914241 12.9999 0.722596 12.9999C0.530952 12.9999 0.347157 12.9238 0.211644 12.7883C0.0761304 12.6528 0 12.469 0 12.2773C0 12.0857 0.0761304 11.9019 0.211644 11.7664L10.5345 1.44439H2.88918C2.69764 1.44439 2.51395 1.3683 2.37851 1.23286C2.24307 1.09743 2.16699 0.913733 2.16699 0.722195C2.16699 0.530657 2.24307 0.346964 2.37851 0.211526C2.51395 0.0760883 2.69764 0 2.88918 0H12.2777C12.4693 0 12.6529 0.0760883 12.7884 0.211526C12.9238 0.346964 12.9999 0.530657 12.9999 0.722195Z" fill="white"/>
</svg>
