<svg width="19" height="19" viewBox="0 0 19 19" fill="none" xmlns="http://www.w3.org/2000/svg">
<path d="M10.5962 14.25C10.5962 14.4668 10.5319 14.6787 10.4114 14.859C10.291 15.0393 10.1198 15.1797 9.91948 15.2627C9.71919 15.3457 9.49879 15.3674 9.28615 15.3251C9.07352 15.2828 8.87821 15.1784 8.72491 15.0251C8.57161 14.8718 8.46721 14.6765 8.42491 14.4638C8.38262 14.2512 8.40433 14.0308 8.48729 13.8305C8.57026 13.6302 8.71075 13.459 8.89101 13.3386C9.07128 13.2181 9.28321 13.1538 9.5 13.1538C9.79072 13.1538 10.0695 13.2693 10.2751 13.4749C10.4807 13.6805 10.5962 13.9593 10.5962 14.25ZM9.5 4.38462C7.48491 4.38462 5.84616 5.85986 5.84616 7.67308V8.03846C5.84616 8.23227 5.92315 8.41815 6.0602 8.55519C6.19724 8.69224 6.38312 8.76923 6.57693 8.76923C6.77074 8.76923 6.95661 8.69224 7.09366 8.55519C7.2307 8.41815 7.3077 8.23227 7.3077 8.03846V7.67308C7.3077 6.66827 8.2915 5.84615 9.5 5.84615C10.7085 5.84615 11.6923 6.66827 11.6923 7.67308C11.6923 8.67788 10.7085 9.5 9.5 9.5C9.30619 9.5 9.12032 9.57699 8.98327 9.71404C8.84623 9.85108 8.76923 10.037 8.76923 10.2308V10.9615C8.76923 11.1554 8.84623 11.3412 8.98327 11.4783C9.12032 11.6153 9.30619 11.6923 9.5 11.6923C9.69382 11.6923 9.87969 11.6153 10.0167 11.4783C10.1538 11.3412 10.2308 11.1554 10.2308 10.9615V10.8958C11.8969 10.5898 13.1539 9.26067 13.1539 7.67308C13.1539 5.85986 11.5151 4.38462 9.5 4.38462ZM19 9.5C19 11.3789 18.4428 13.2156 17.399 14.7779C16.3551 16.3402 14.8714 17.5578 13.1355 18.2769C11.3996 18.9959 9.48947 19.184 7.64665 18.8175C5.80383 18.4509 4.11109 17.5461 2.78249 16.2175C1.45389 14.8889 0.549104 13.1962 0.182544 11.3534C-0.184015 9.51054 0.0041162 7.60041 0.723149 5.86451C1.44218 4.12861 2.65982 2.64491 4.22209 1.60104C5.78435 0.557165 7.62108 0 9.5 0C12.0187 0.00265983 14.4336 1.0044 16.2146 2.78542C17.9956 4.56644 18.9973 6.98126 19 9.5ZM17.5385 9.5C17.5385 7.91014 17.067 6.35599 16.1837 5.03407C15.3005 3.71215 14.045 2.68184 12.5762 2.07343C11.1074 1.46502 9.49109 1.30583 7.93178 1.616C6.37247 1.92616 4.94015 2.69175 3.81595 3.81595C2.69175 4.94015 1.92617 6.37247 1.616 7.93177C1.30583 9.49108 1.46502 11.1074 2.07343 12.5762C2.68185 14.045 3.71216 15.3005 5.03407 16.1837C6.35599 17.067 7.91015 17.5385 9.5 17.5385C11.6312 17.536 13.6744 16.6884 15.1814 15.1814C16.6884 13.6744 17.536 11.6312 17.5385 9.5Z" fill="#1D1F13"/>
</svg>
